<?xml version="1.0" encoding="utf-8"?>
<!-- Generator: Adobe Illustrator 25.2.3, SVG Export Plug-In . SVG Version: 6.00 Build 0)  -->
<svg version="1.1" id="圖層_1" xmlns="http://www.w3.org/2000/svg" xmlns:xlink="http://www.w3.org/1999/xlink" x="0px" y="0px"
	 viewBox="0 0 36 36" style="enable-background:new 0 0 36 36;" xml:space="preserve">
<style type="text/css">
	.st0{fill-rule:evenodd;clip-rule:evenodd;fill:#2E2E2E;}
</style>
<path class="st0" d="M18,0C9.1,0,4.2,6.3,4.2,14c0,6.4,7.3,16.6,9.9,20c0.6,0.8,1.4,1.3,2.3,1.6c1.6,0.5,2.6,0.5,3.5,0.2
	c0.7-0.3,1.3-0.8,1.7-1.4c2.2-2.9,10.2-13.7,10.2-20.4C31.8,6.3,27.7,0,18,0z M18,22.7c-5.1,0-9.2-3.2-9.2-9.3C8.8,8.2,12.9,4,18,4
	s9.2,4.2,9.2,9.3C27.2,19.5,23.1,22.7,18,22.7z"/>
</svg>
