<?xml version="1.0" encoding="utf-8"?>
<!-- Generator: Adobe Illustrator 25.2.3, SVG Export Plug-In . SVG Version: 6.00 Build 0)  -->
<svg version="1.1" id="圖層_1" xmlns="http://www.w3.org/2000/svg" xmlns:xlink="http://www.w3.org/1999/xlink" x="0px" y="0px"
	 viewBox="0 0 36 36" style="enable-background:new 0 0 36 36;" xml:space="preserve">
<style type="text/css">
	.st0{fill-rule:evenodd;clip-rule:evenodd;fill:#2E2E2E;}
</style>
<path class="st0" d="M18,0C8.5,0,0,8.1,0,18c0,9.9,8.5,18,18,18c9.9,0,18-8.1,18-18C36,8.1,27.9,0,18,0L18,0z M18,5.6
	c6.8,0,12.4,5.5,12.4,12.4c0,6.8-5.5,12.4-12.4,12.4c-6.8,0-12.4-5.5-12.4-12.4C5.6,11.2,11.2,5.6,18,5.6L18,5.6z M18,19.7
	c-0.9,0-1.7-0.8-1.7-1.7v-7.3C16.3,9.8,17.1,9,18,9s1.7,0.8,1.7,1.7v5.6h3.7c0.6,0,1.4,0.8,1.4,1.7c0,0.9-0.8,1.7-1.4,1.7H18
	L18,19.7z M18,3.4c8.1,0,14.6,6.5,14.6,14.6c0,8.1-6.5,15.4-14.6,15.4c-7.7,0-14.6-7.4-14.6-15.4C3.4,9.9,10.3,3.4,18,3.4z"/>
</svg>
