<?xml version="1.0" encoding="utf-8"?>
<!-- Generator: Adobe Illustrator 25.2.3, SVG Export Plug-In . SVG Version: 6.00 Build 0)  -->
<svg version="1.1" id="圖層_1" xmlns="http://www.w3.org/2000/svg" xmlns:xlink="http://www.w3.org/1999/xlink" x="0px" y="0px"
	 viewBox="0 0 36 36" style="enable-background:new 0 0 36 36;" xml:space="preserve">
<style type="text/css">
	.st0{fill:#ED3023;}
	.st1{fill:#FFFFFF;}
</style>
<path class="st0" d="M18,36L18,36C8.1,36,0,27.9,0,18v0C0,8.1,8.1,0,18,0h0c9.9,0,18,8.1,18,18v0C36,27.9,27.9,36,18,36z"/>
<g>
	<path class="st1" d="M27.6,13.2c-0.2-0.9-0.9-1.5-1.8-1.8C24.3,11,18,11,18,11s-6.3,0-7.8,0.4c-0.9,0.2-1.5,0.9-1.8,1.8
		C8,14.7,8,18,8,18s0,3.3,0.4,4.8c0.2,0.9,0.9,1.5,1.8,1.8C11.7,25,18,25,18,25s6.3,0,7.8-0.4c0.9-0.2,1.5-0.9,1.8-1.8
		C28,21.3,28,18,28,18S28,14.7,27.6,13.2z"/>
	<polygon class="st0" points="16,21 21.2,18 16,15 	"/>
</g>
</svg>
