<?xml version="1.0" encoding="utf-8"?>
<!-- Generator: Adobe Illustrator 25.2.3, SVG Export Plug-In . SVG Version: 6.00 Build 0)  -->
<svg version="1.1" id="圖層_1" xmlns="http://www.w3.org/2000/svg" xmlns:xlink="http://www.w3.org/1999/xlink" x="0px" y="0px"
	 viewBox="0 0 36 36" style="enable-background:new 0 0 36 36;" xml:space="preserve">
<style type="text/css">
	.st0{fill-rule:evenodd;clip-rule:evenodd;fill:#222222;}
</style>
<g>
	<path class="st0" d="M31.5,34C31.5,34,31.5,34,31.5,34C31.5,34.1,31.5,34.1,31.5,34z"/>
	<path class="st0" d="M32.6,1.6H3.4C1.5,1.6,0,3,0,4.9v18.9c0,1.9,1.5,3.5,3.4,3.5h19.8l6.4,6.7c0.4,0.5,1.2,0.5,1.9,0
		c0-0.1,0-0.6,0-0.8v-5.9h1.1c1.9,0,3.4-1.6,3.4-3.5V4.9C36,3,34.5,1.6,32.6,1.6z M11.5,16.2c-0.9,0-1.7-0.8-1.7-1.8
		s0.8-1.8,1.7-1.8c1,0,1.7,0.8,1.7,1.8S12.4,16.2,11.5,16.2z M18.1,16.2c-0.9,0-1.7-0.8-1.7-1.8s0.8-1.8,1.7-1.8
		c0.9,0,1.7,0.8,1.7,1.8S19,16.2,18.1,16.2z M24.7,16.2c-0.9,0-1.7-0.8-1.7-1.8s0.8-1.8,1.7-1.8c1,0,1.7,0.8,1.7,1.8
		S25.6,16.2,24.7,16.2z"/>
</g>
</svg>
