<?xml version="1.0" encoding="utf-8"?>
<!-- Generator: Adobe Illustrator 25.2.3, SVG Export Plug-In . SVG Version: 6.00 Build 0)  -->
<svg version="1.1" id="圖層_1" xmlns="http://www.w3.org/2000/svg" xmlns:xlink="http://www.w3.org/1999/xlink" x="0px" y="0px"
	 viewBox="0 0 36 36" style="enable-background:new 0 0 36 36;" xml:space="preserve">
<style type="text/css">
	.st0{fill-rule:evenodd;clip-rule:evenodd;fill:#F9F9F9;}
</style>
<path class="st0" d="M34.4,34.9V36H1.6v-1.1h5v-6.5c-2.4-0.1-4.3-1.9-4.3-3.6c0-2.8,2-4.7,4.4-4.7h22.1c2.4,0,4.4,1.9,4.4,4.7
	c0,1.7-1.9,3.6-4.3,3.6v6.5H34.4z M22.5,34.9h1.8v-4.6c0-0.5-0.4-0.9-0.9-0.9c-0.5,0-0.9,0.4-0.9,0.9V34.9z M16.8,34.9h1.8v-8.1
	c0-0.5-0.4-0.9-0.9-0.9c-0.5,0-0.9,0.4-0.9,0.9V34.9z M11.4,34.9h1.4v-4.6c0-0.5,0.1-0.9-0.9-0.9c-0.5,0-0.5,0.4-0.5,0.9V34.9z
	 M31.9,24.7c0-2.2-1.4-3.6-3.2-3.6H6.7c-1.8,0-3.2,1.4-3.2,3.6c0,1.1,1.4,2.5,3.2,2.5c1.8,0,3.2-1.4,3.2-2.5h1.2
	c0,1.4-1.4,3-3.3,3.9v6.2h2.1v-4.6c0-1.1,1-2,2.1-2c1.6,0,2.1,0.9,2.1,2v4.6h1.5v-8.1c0-1.1,1-2,2.1-2c1.8,0,2.1,0.9,2.1,2v8.1h1.5
	v-4.6c0-1.1,1-2,2.1-2c1.2,0,2.1,0.9,2.1,2v4.6h2.1v-6.2c-1.9-0.9-3.3-2.5-3.3-3.9h1.2c0,1.1,1.4,2.5,3.2,2.5
	C30.5,27.2,31.9,25.8,31.9,24.7z M26.6,24.7c0-1.7,1-2.4,2.2-2.4c1.2,0,2.5,0.8,2.5,2.4c0,0.6-1.3,1.6-2.5,1.6
	C27.6,26.2,26.6,25.3,26.6,24.7z M28.8,25.1c0.5,0,1-0.4,1-0.4c0-1-0.4-1.4-1-1.4c-0.5,0-1,0.4-1,1.4C27.8,24.7,28.2,25.1,28.8,25.1
	z M6.6,26.2c-1.2,0-2.2-0.9-2.2-1.6c0-1.7,1-2.4,2.2-2.4c1.2,0,2.2,0.8,2.2,2.4C8.8,25.3,7.8,26.2,6.6,26.2z M6.6,23.2
	c-0.5,0-1,0.4-1,1.4c0,0,0.4,0.4,1,0.4c0.5,0,1-0.4,1-0.4C7.6,23.6,7.2,23.2,6.6,23.2z M32,19.2H4c-0.3,0-0.6-0.3-0.6-0.6V2.1
	c0,0,0.3-0.6,0.6-0.6h1.7c0-0.1,0.1-0.3,0.2-0.4C9.2-0.5,14.5-0.7,18,2.6c3.6-3.3,8.8-3.1,12.1-1.4c0.6,0.1,0.2,0.2,0.2,0.4H32
	c1,0,0.6,0.5,0.6,0.6v16.5C32.6,18.9,33,19.2,32,19.2z M5.9,17.3c-0.1-0.1-0.2-0.3-0.2-0.4V2.7h-1v15.5H15C12,17,9.1,16.8,6.4,17.4
	C6.3,17.5,6.1,17.4,5.9,17.3z M17.9,3.6c-3.5-3-8.1-3.7-11-1.7v14.2c0.9,0.1,1.8-0.2,2.8-0.2c2.4,0,5,0.6,8.2,1.8V3.6z M29.2,1.9
	c-2.9-2-7-1.3-10.5,1.7v14.1c4.2-1.6,7.2-2.1,10.5-1.5V1.9z M31.4,2.7h-1.1v14.2c0,0.2-0.1,0.3-0.2,0.4c-0.1,0.1-0.3,0.1-0.5,0.1
	c-2.7-0.6-5.5-0.4-8.6,0.8h10.4V2.7z M20.4,13.4h7.3v1.1h-7.3V13.4z M20.4,11h7.3v1.1h-7.3V11z M20.4,9.1h7.3v0.6h-7.3V9.1z
	 M20.4,6.2h7.3v1.1h-7.3V6.2z M20.4,3.8h7.3v1.1h-7.3V3.8z M8.4,13.4h7.3v1.1H8.4V13.4z M8.4,11h7.3v1.1H8.4V11z M8.4,9.1h7.3v0.6
	H8.4V9.1z M8.4,6.2h7.3v1.1H8.4V6.2z M8.4,3.8h7.3v1.1H8.4V3.8z"/>
</svg>
