<?xml version="1.0" encoding="utf-8"?>
<!-- Generator: Adobe Illustrator 25.2.3, SVG Export Plug-In . SVG Version: 6.00 Build 0)  -->
<svg version="1.1" id="圖層_1" xmlns="http://www.w3.org/2000/svg" xmlns:xlink="http://www.w3.org/1999/xlink" x="0px" y="0px"
	 viewBox="0 0 36 36" style="enable-background:new 0 0 36 36;" xml:space="preserve">
<style type="text/css">
	.st0{fill-rule:evenodd;clip-rule:evenodd;fill:#FFFFFF;}
</style>
<g>
	<path class="st0" d="M21.2,27.4h-6.4c-0.4,0-0.6-0.1-0.6,0.6v3.9c0,0,0.3,0.3,0.6,0.3c0.4,0,1.2-0.3,1.2-0.3v-3.3h4.6v3.3
		c0,0,0.3,0.3,0.6,0.3c0.4,0,0.6-0.3,0.6-0.3V28C21.9,27.3,21.6,27.4,21.2,27.4z M23.8,23.2H12.2c-0.4,0-0.6,0.3-0.6,0.6
		s0.3,0.6,0.6,0.6h11.6c0.4,0,0.6-0.3,0.6-0.6S24.1,23.2,23.8,23.2z M23.8,19.3H12.2c-0.4,0-0.6,0.3-0.6,0.6s0.3,0.6,0.6,0.6h11.6
		c0.4,0,0.6-0.3,0.6-0.6S24.1,19.3,23.8,19.3z M3.2,20.6h3.9c0.4,0,0.6-0.3,0.6-0.6s-0.3-0.6-0.6-0.6H3.2c-0.4,0-0.6,0.3-0.6,0.6
		S2.9,20.6,3.2,20.6z M3.2,16.7h3.9c0.4,0,0.6-0.3,0.6-0.6c0-0.4-0.3-0.6-0.6-0.6H3.2c-0.4,0-0.6,0.3-0.6,0.6
		C2.6,16.4,2.9,16.7,3.2,16.7z M3.2,24.5h3.9c0.4,0,0.6-0.3,0.6-0.6s-0.3-0.6-0.6-0.6H3.2c-0.4,0-0.6,0.3-0.6,0.6S2.9,24.5,3.2,24.5
		z M3.2,28.6h3.9c0.4,0,0.6-0.6,0.6-0.6c0-0.7-0.3-0.6-0.6-0.6H3.2c-0.4,0-0.6-0.1-0.6,0.6C2.6,28,2.9,28.6,3.2,28.6z M28.9,20.6
		h3.9c0.4,0,0.6-0.3,0.6-0.6s-0.3-0.6-0.6-0.6h-3.9c-0.4,0-0.6,0.3-0.6,0.6S28.6,20.6,28.9,20.6z M28.9,16.7h3.9
		c0.4,0,0.6-0.3,0.6-0.6c0-0.4-0.3-0.6-0.6-0.6h-3.9c-0.4,0-0.6,0.3-0.6,0.6C28.3,16.4,28.6,16.7,28.9,16.7z M28.9,24.5h3.9
		c0.4,0,0.6-0.3,0.6-0.6s-0.3-0.6-0.6-0.6h-3.9c-0.4,0-0.6,0.3-0.6,0.6S28.6,24.5,28.9,24.5z M28.9,28.6h3.9c0.4,0,0.6-0.6,0.6-0.6
		c0-0.7-0.3-0.6-0.6-0.6h-3.9c-0.4,0-0.6-0.1-0.6,0.6C28.3,28,28.6,28.6,28.9,28.6z M23.8,15.4H12.2c-0.4,0-0.6,0.3-0.6,0.6
		c0,0.4,0.3,0.6,0.6,0.6h11.6c0.4,0,0.6-0.3,0.6-0.6C24.4,15.7,24.1,15.4,23.8,15.4z M23.8,11.5H12.2c-0.4,0-0.6,0.3-0.6,0.6
		s0.3,0.6,0.6,0.6h11.6c0.4,0,0.6-0.3,0.6-0.6S24.1,11.5,23.8,11.5z M23.8,7.7H12.2c-0.4,0-0.6,0.3-0.6,0.6c0,0.4,0.3,0.6,0.6,0.6
		h11.6c0.4,0,0.6-0.3,0.6-0.6S24.1,7.7,23.8,7.7z M35.4,11.5H27V4.4c0-0.4-0.3-0.6-0.6-0.6H9.6C9.3,3.8,9,4.1,9,4.4v7.1H0.6
		c-0.4,0-0.6,0.3-0.6,0.6v19.7c0,0,0.3,0.3,0.6,0.3h9c0.4,0,0.6-0.3,0.6-0.3V5.1h15.4v26.8c0,0,0.3,0.3,0.6,0.3h9
		c0.4,0,0.6-0.3,0.6-0.3V12.2C36,11.8,35.7,11.5,35.4,11.5z M9,31H1.3V12.8H9V31z M34.7,31H27V12.8h7.7V31z"/>
</g>
</svg>
