<?xml version="1.0" encoding="utf-8"?>
<!-- Generator: Adobe Illustrator 25.2.3, SVG Export Plug-In . SVG Version: 6.00 Build 0)  -->
<svg version="1.1" id="圖層_1" xmlns="http://www.w3.org/2000/svg" xmlns:xlink="http://www.w3.org/1999/xlink" x="0px" y="0px"
	 viewBox="0 0 36 36" style="enable-background:new 0 0 36 36;" xml:space="preserve">
<style type="text/css">
	.st0{fill-rule:evenodd;clip-rule:evenodd;fill:#FFFFFF;}
</style>
<g>
	<path class="st0" d="M33,18.2C30.8,24,28.8,29.5,32.9,35c0.1,0.1,0.2,0.7,0.2,0.4c0,0.3-0.3,0.6-0.1,0.6h-0.1H3.5
		c-0.2,0-0.3-0.1-0.5-0.2c-4.5-6.1-2.3-12.1,0.5-18C5.1,12,7.2,6.8,3,0.9c0-0.2-0.1-0.4,0-0.6S3.3,0,3.5,0h29.4
		c-0.2,0,0,0.1,0.1,0.4C37.5,6.3,35.2,12.3,33,18.2z M32.2,1.1H4.5C8.2,6.9,6.1,12.6,4,18.2C1.8,24,0.2,29.4,3.8,34.9h27.7
		C27.8,29.1,30,23.4,32,17.8C34.1,12.1,36.1,6.6,32.2,1.1z M32,7.5h-6.6c-0.3,0-0.6-0.3-0.6-0.6s0.3-0.6,0.6-0.6H32
		c0.3,0,0.6,0.3,0.6,0.6S32.3,7.5,32,7.5z M31,3.9h-7.5c-0.2,0-0.6-0.3-0.6,0c0-0.9,0.3-1.2,0.6-1.2H31c0.3,0,0.6,0.3,0.6,1.2
		C31.5,3.7,31.3,3.9,31,3.9z M21.5,14.2c-0.4,0.5-1.1,0.6-1.7,0.8l2,4.8c0.1,0.1,0.1,0.2,0.1,0.3c0,0.3-0.3,0.6-0.6,0.6
		c-0.1,0-0.2,0-0.3-0.1l-2-0.4l-0.5,2.1c0,0.2-0.3,0.4-0.5,0.4c0,0,0,0-0.1,0c-0.2,0-0.4-0.1-0.5-0.3l-2-4.8l-2,4.8
		c-0.1,0.2-0.3,0.3-0.5,0.3c0,0,0,0-0.1,0c-0.2,0-0.4-0.2-0.5-0.4l-0.5-2.1l-1.6,0.4c-0.6,0.1-0.9,0.1-1,0.5c0-0.8-0.2-1,0.4-1.2
		l1.6-4.9c-0.6-0.2-1.3-0.3-1.7-0.8C9,13.4,9.4,12.4,9.3,12c-0.3-0.9-2-1.6-0.4-3.5c0.5-0.6,0.5-0.6,0.4-1.3c0.4-2.5,1.7-2,2.4-2.5
		c0.7-0.5,0.8-2.4,3.1-1.5c0.7,0.7,0.8,0.7,1.5,0c2.4-0.9,2.5,1,3.1,1.5c0.7,0.5,2.5,0,2.4,2.5c0,0.7,0,0.8,0.4,1.3
		c0.3,0.8,0.7,0.8,0.7,1.4c0,0.9-0.9,1.5-1.1,2.2C22.2,12.4,22,13.4,21.5,14.2z M17.9,20.3l0.3-1.5c0-0.2,0.1-0.3,0.8-0.4
		c-0.3-0.1-0.1-0.1,0,0l1.3,1.2L18.9,16c-0.7,0.8-1.3,1.1-2.6,0.6L17.9,20.3z M10.8,19.5l1.3-1.2c0.1,0,0.2-0.1,0.9-0.1
		c-0.6,0-0.5,0-0.4,0.1c0.2,0.1,0.3,0.2,0.3,0.4l0.3,1.5l1.5-3.6c-1.8,0.7-1.9-0.2-2.6-0.6L10.8,19.5z M20.7,8.2
		c-0.2-0.7,0.1-1.2-0.2-2c-0.2-0.3-1.2-0.3-1.8-0.8C18.1,5,17.8,4.1,17.4,4c-0.3-0.1-1.2,0.5-1.9,0.5c-0.7,0-1.6-0.6-1.9-0.5
		c-0.4,0.1-0.7,1.1-1.3,1.5S11.1,6,10.5,6.3c-0.2,0.9,0.1,1.3-0.2,2c-0.2,0.7-1,1.3-1,1.7s0.8,1,1,1.7s-0.1,1.7,0.2,2.5
		c0.6-0.3,1.2-0.2,2.2,0.8c-0.1-0.4,0.1-0.1,0.8,0.3c0.2,1,0,0.6,1.7,0.2c-0.1,0,0.2,0,0.3,0c1.1,0,1.7,0.8,2.3,0.3
		c0.5-0.7,0.3-1,2-1.8c0.9-0.2,0.9-0.2,0.8-0.9c0-0.6,0-0.7,0.1-1.3c0.2-0.7,1-1.3,1-1.7C21.7,9.5,20.9,8.9,20.7,8.2z M15.5,13.8
		c-2.2,0-4-1.8-4-3.9c0-2.2,1.8-3.9,4-3.9c2.5,0,4,1.8,4,3.9S18.1,13.8,15.5,13.8z M15.5,7c-1.6,0-2.8,1.3-2.8,2.8
		c0,1.6,1.3,3,2.8,3s2.8-1.4,2.8-3C18.3,8.3,17.1,7,15.5,7z M28.5,24.5c0,0.1-0.3,0.4-0.6,0.4H4.8c0.4,0-0.6-0.3-0.6-0.4
		c0-0.5,0.9-0.7,0.6-0.7h23.1C28.2,23.8,28.5,24,28.5,24.5z M28.1,27.1c0,0.3-0.6,0.6-0.9,0.6H3.9c-0.3,0-0.6-0.3-0.6-0.6
		c0-0.3,0.3-0.6,0.6-0.6h23.3C27.6,26.5,28.1,26.8,28.1,27.1z M3.8,29.3h23.3c0.3,0,0.6,0.3,0.6,0.6c0,0.3-0.3,0.6-0.6,0.6H3.8
		c-0.3,0-0.6-0.3-0.6-0.6C3.3,29.5,3.5,29.3,3.8,29.3z M5,32.1h23.3c-0.2,0,0.1,0.3,0.1,0.6c0,0.6-0.3,0.6-0.1,0.6H5
		c-0.3,0-0.6,0.1-0.6-0.6C4.4,32.3,4.7,32.1,5,32.1z M24,13.9c0-0.3,0.3-0.6,0.6-0.6h6.8c-0.1,0,0.1,0.3,0.1,0.6
		c0,0.6-0.3,0.6-0.1,0.6h-6.8C24.3,14.5,24,14.5,24,13.9z M24.8,10.4c0-0.3,0.3-0.6,0.6-0.6H32c0.3,0,0.6,0.3,0.6,0.6S32.3,11,32,11
		h-6.6C25.1,11,24.8,10.7,24.8,10.4z"/>
</g>
</svg>
