<?xml version="1.0" encoding="utf-8"?>
<!-- Generator: Adobe Illustrator 25.2.3, SVG Export Plug-In . SVG Version: 6.00 Build 0)  -->
<svg version="1.1" id="圖層_1" xmlns="http://www.w3.org/2000/svg" xmlns:xlink="http://www.w3.org/1999/xlink" x="0px" y="0px"
	 viewBox="0 0 36 36" style="enable-background:new 0 0 36 36;" xml:space="preserve">
<style type="text/css">
	.st0{fill:#FFFFFF;}
</style>
<g>
	<path class="st0" d="M8,34.9H3c-0.9,0-1.6-0.7-1.6-1.6V9.2c0-0.9,0.7-1.6,1.6-1.6h5c0.9,0,1.6,0.7,1.6,1.6v24.1
		C9.6,34.2,8.9,34.9,8,34.9z M3,8.8C2.8,8.8,2.6,9,2.6,9.2v24.1c0,0.2,0.2,0.4,0.4,0.4h5c0.2,0,0.4-0.2,0.4-0.4V9.2
		C8.4,9,8.2,8.8,8,8.8H3z"/>
	<path class="st0" d="M16.5,34.9H10c-0.9,0-1.6-0.7-1.6-1.6V4.7c0-0.9,0.7-1.6,1.6-1.6h6.5c0.9,0,1.6,0.7,1.6,1.6v28.6
		C18.1,34.2,17.4,34.9,16.5,34.9z M10,4.3c-0.2,0-0.4,0.2-0.4,0.4v28.6c0,0.2,0.2,0.4,0.4,0.4h6.5c0.2,0,0.4-0.2,0.4-0.4V4.7
		c0-0.2-0.2-0.4-0.4-0.4C16.5,4.3,10,4.3,10,4.3z"/>
	<path class="st0" d="M21.5,34.9h-3c-0.9,0-1.6-0.7-1.6-1.6V6.2c0-0.9,0.7-1.6,1.6-1.6h3c0.9,0,1.6,0.7,1.6,1.6v27.1
		C23.1,34.2,22.4,34.9,21.5,34.9z M18.5,5.8c-0.2,0-0.4,0.2-0.4,0.4v27.1c0,0.2,0.2,0.4,0.4,0.4h3c0.2,0,0.4-0.2,0.4-0.4V6.2
		c0-0.2-0.2-0.4-0.4-0.4C21.5,5.8,18.5,5.8,18.5,5.8z"/>
	<path class="st0" d="M29,34.9h-5.5c-0.9,0-1.6-0.7-1.6-1.6V2.7c0-0.9,0.7-1.6,1.6-1.6H29c0.9,0,1.6,0.7,1.6,1.6v30.6
		C30.6,34.2,29.9,34.9,29,34.9z M23.5,2.3c-0.2,0-0.4,0.2-0.4,0.4v30.6c0,0.2,0.2,0.4,0.4,0.4H29c0.2,0,0.4-0.2,0.4-0.4V2.7
		c0-0.2-0.2-0.4-0.4-0.4H23.5z"/>
	<path class="st0" d="M33,34.9h-2c-0.9,0-1.6-0.7-1.6-1.6V4.7c0-0.9,0.7-1.6,1.6-1.6h2c0.9,0,1.6,0.7,1.6,1.6V8
		c0,0.3-0.3,0.6-0.6,0.6S33.4,8.3,33.4,8V4.7c0-0.2-0.2-0.4-0.4-0.4h-2c-0.2,0-0.4,0.2-0.4,0.4v28.6c0,0.2,0.2,0.4,0.4,0.4h2
		c0.2,0,0.4-0.2,0.4-0.4V11.5c0-0.3,0.3-0.6,0.6-0.6s0.6,0.3,0.6,0.6v21.8C34.6,34.2,33.9,34.9,33,34.9z"/>
	<path class="st0" d="M9,16.3H2c-0.3,0-0.6-0.3-0.6-0.6v-2c0-0.3,0.3-0.6,0.6-0.6h7c0.3,0,0.6,0.3,0.6,0.6v2C9.6,16,9.3,16.3,9,16.3
		z M2.6,15.1h5.8v-0.8H2.6V15.1z"/>
	<path class="st0" d="M9,20.2H2c-0.3,0-0.6-0.3-0.6-0.6v-2C1.4,17.3,1.7,17,2,17h7c0.3,0,0.6,0.3,0.6,0.6v2
		C9.6,19.9,9.3,20.2,9,20.2z M2.6,19h5.8v-0.8H2.6V19z"/>
	<path class="st0" d="M6.5,29.6h-2c-0.3,0-0.6-0.3-0.6-0.6c0-0.3,0.3-0.6,0.6-0.6h2.1c0.3,0,0.6,0.3,0.6,0.6
		C7.1,29.4,6.9,29.6,6.5,29.6z"/>
	<path class="st0" d="M6.5,27.6h-2c-0.3,0-0.6-0.3-0.6-0.6c0-0.3,0.3-0.6,0.6-0.6h2.1c0.3,0,0.6,0.3,0.6,0.6
		C7.1,27.3,6.9,27.6,6.5,27.6z"/>
	<path class="st0" d="M14.3,29.6h-2.1c-0.3,0-0.6-0.3-0.6-0.6c0-0.3,0.3-0.6,0.6-0.6h2.1c0.3,0,0.6,0.3,0.6,0.6
		C14.9,29.4,14.6,29.6,14.3,29.6z"/>
	<path class="st0" d="M14.3,27.6h-2.1c-0.3,0-0.6-0.3-0.6-0.6c0-0.3,0.3-0.6,0.6-0.6h2.1c0.3,0,0.6,0.3,0.6,0.6
		C14.9,27.3,14.6,27.6,14.3,27.6z"/>
	<path class="st0" d="M14.2,21.5h-1.9c-0.9,0-1.6-0.7-1.6-1.6V11c0-0.9,0.7-1.6,1.6-1.6h1.9c0.9,0,1.6,0.7,1.6,1.6v9
		C15.8,20.8,15.1,21.5,14.2,21.5z M12.3,10.6c-0.2,0-0.4,0.2-0.4,0.4v9c0,0.2,0.2,0.4,0.4,0.4h1.9c0.2,0,0.4-0.2,0.4-0.4v-9
		c0-0.2-0.2-0.4-0.4-0.4H12.3z"/>
	<path class="st0" d="M22.5,28.7H20c-0.3,0-0.6-0.3-0.6-0.6c0-0.3,0.3-0.6,0.6-0.6h2.5c0.3,0,0.6,0.3,0.6,0.6
		C23.1,28.4,22.8,28.7,22.5,28.7z"/>
	<path class="st0" d="M22.5,11.3h-2.7c-0.3,0-0.6-0.3-0.6-0.6s0.3-0.6,0.6-0.6h2.7c0.3,0,0.6,0.3,0.6,0.6S22.8,11.3,22.5,11.3z"/>
	<path class="st0" d="M30,8.8h-7.5c-0.3,0-0.6-0.3-0.6-0.6V6.3c0-0.3,0.3-0.6,0.6-0.6H30c0.3,0,0.6,0.3,0.6,0.6v1.9
		C30.6,8.6,30.3,8.8,30,8.8z M23.1,7.7h6.3V6.9h-6.3C23.1,6.9,23.1,7.7,23.1,7.7z"/>
	<path class="st0" d="M30,18.4h-7.5c-0.3,0-0.6-0.3-0.6-0.6v-1.9c0-0.3,0.3-0.6,0.6-0.6H30c0.3,0,0.6,0.3,0.6,0.6v1.9
		C30.6,18.1,30.3,18.4,30,18.4z M23.1,17.2h6.3v-0.8h-6.3C23.1,16.4,23.1,17.2,23.1,17.2z"/>
	<path class="st0" d="M30,28h-7.5c-0.3,0-0.6-0.3-0.6-0.6v-1.9c0-0.3,0.3-0.6,0.6-0.6H30c0.3,0,0.6,0.3,0.6,0.6v1.9
		C30.6,27.7,30.3,28,30,28z M23.1,26.8h6.3V26h-6.3C23.1,26,23.1,26.8,23.1,26.8z"/>
	<path class="st0" d="M27.9,31.7h-3.3c-0.3,0-0.6-0.3-0.6-0.6c0-0.3,0.3-0.6,0.6-0.6h3.3c0.3,0,0.6,0.3,0.6,0.6
		C28.5,31.5,28.2,31.7,27.9,31.7z"/>
	<path class="st0" d="M32,31.7c-0.3,0-0.6-0.3-0.6-0.6v-1.5c0-0.3,0.3-0.6,0.6-0.6c0.3,0,0.6,0.3,0.6,0.6v1.5
		C32.6,31.5,32.3,31.7,32,31.7z"/>
	<path class="st0" d="M32,28c-0.3,0-0.6-0.3-0.6-0.6v-4.2c0-0.3,0.3-0.6,0.6-0.6c0.3,0,0.6,0.3,0.6,0.6v4.2C32.6,27.7,32.3,28,32,28
		z"/>
	<path class="st0" d="M32,10.5c-0.3,0-0.6-0.3-0.6-0.6V7c0-0.3,0.3-0.6,0.6-0.6c0.3,0,0.6,0.3,0.6,0.6v2.9
		C32.6,10.2,32.3,10.5,32,10.5z"/>
	<path class="st0" d="M35.4,34.9H0.6c-0.3,0-0.6-0.3-0.6-0.6s0.3-0.6,0.6-0.6h34.8c0.3,0,0.6,0.3,0.6,0.6
		C36,34.6,35.7,34.9,35.4,34.9z"/>
</g>
</svg>
