<?xml version="1.0" encoding="utf-8"?>
<!-- Generator: Adobe Illustrator 25.2.3, SVG Export Plug-In . SVG Version: 6.00 Build 0)  -->
<svg version="1.1" id="圖層_1" xmlns="http://www.w3.org/2000/svg" xmlns:xlink="http://www.w3.org/1999/xlink" x="0px" y="0px"
	 viewBox="0 0 36 36" style="enable-background:new 0 0 36 36;" xml:space="preserve">
<style type="text/css">
	.st0{fill-rule:evenodd;clip-rule:evenodd;fill:#FFFFFF;}
</style>
<g>
	<path class="st0" d="M36,21.9v12.4c0,0.9-0.8,1.7-1.7,1.7c-2.9,0-30.8,0-33.4,0C0.3,36,0,35.7,0,35.4V28c0-2.4,1.3-4.6,3.4-5.7
		c0.6-0.3,1.3-0.6,2-0.7c-0.6-0.7-0.8-1.6-0.8-2.5V9.8C4.6,4.4,8.8,0,14.3,0c5.4,0,9.9,4.4,9.9,9.8v7.6h7.4c0.1,0,0.3,0.1,0.4,0.2
		c-0.1-0.1,3.7,3.7,3.8,3.8c0.1,0.1,0.2,0.3,0.2,0.6C36,22.2,36,22.4,36,21.9z M17.2,34.9h4.4c-0.1-0.1-0.1-0.4-0.1-0.6V22.6
		c-0.3,0.1-0.6,0.1-0.9,0.2L17,28.2c-0.1,0.2-0.3,0.3-0.5,0.3c-0.1,0-0.2,0-0.3-0.1l-0.3,0.4L17.2,34.9z M11.9,26.9l1.7-2.6
		l-3.2-3.4c0.1-0.1-1.7,1.2-1.7,1.2C13.1,28.7,12.1,26.8,11.9,26.9z M12.9,27.5l0.4,0.6h1.9l0.4-0.6l-1.4-2.2L12.9,27.5z M10,19.6
		l0.4-0.6c-1.7-0.9-2.8-2.9-3-5H7.1c-0.6,0-1.1-0.2-1.6-0.5v5.6c0,1,0.5,1.9,1.4,2.3l0.7-0.1C7.4,21.4,10,19.7,10,19.6z M8.5,13.3
		c0,2.2,1.2,4.1,3.3,5.1c-0.2,0-0.1,0-0.1,0c3.6,2.1,8.4-0.7,8.4-5.1V8.1c-0.1,0,0.1,0-0.2,0l0,0c-3.7,0-6.6-1.3-7.6-1.8
		c-1,1-2.8,1.5-3.7,1.7L8.5,13.3L8.5,13.3z M17.1,19.6c-1.5,0.8-3.8,0.8-5.7,0L11.2,20l3.1,3.3l3.1-3.3L17.1,19.6z M15,24.2l1.7,2.6
		l3.6-4.9l-2.1-1.2L15,24.2z M16.1,34.9L15,29.2h-1.5l-1.1,5.7H16.1z M4,23.3C2.2,24.2,1.1,26,1.1,28v6.9h10.2l1.1-6.1l0.2-0.4
		c-0.5,0-0.6,0.1-0.7,0.1c-0.2,0,0-0.1-0.5-0.3c-0.4-0.1,1.3,2.3-3.6-5.4c-0.4,0-0.7-0.1-1-0.3C6,22.7,5.5,22.7,4,23.3z M7.1,12.9
		h0.2V9.7H7.1c-0.9,0-1.6,0.7-1.6,1.6C5.5,12.6,6.2,12.9,7.1,12.9z M14.3,1.1c-4.6,0-8.3,3.5-8.7,8c0.4-0.3,1-0.5,1.6-0.5h0.2V7.5
		c0-0.3,0.2-0.3,0.5-0.6c0.8-0.1,3.6-0.4,3.8-1.7C11.9,5,12.2,4.9,12.5,5c0,0,3.2,1.9,7.5,2l0,0c0.2,0,0.5-0.1,1.3-0.1
		c-0.4,0-0.3,0.3-0.1,0.2c0.1,0.1,0.3,0.3,0.3,0.4v1.1h0.1c0.6,0,1.1,0.2,1.6,0.5C22.6,4.6,18.8,1.1,14.3,1.1z M21.4,9.7h-0.1v3.2
		h0.1c0.9,0,1.6-0.3,1.6-1.6C23,10.4,22.3,9.7,21.4,9.7z M23,13.5c-0.4,0.3-1,0.5-1.6,0.5h-0.3c-0.2,2.1-1.4,4.4-3,5l0.4,0.6
		c-0.2-0.1,2.4,1.6,2.4,1.7l0.7,0.1v-2.3c0-0.8,0.6-1.5,1.4-1.7V13.5z M32.6,19.4v1.4c0,0.3-0.3,0.6,0.1,0.6h1.4L32.6,19.4z
		 M34.9,22.4h-2.2c-0.9,0-1.7-0.8-1.7-1.7v-2.2c-3.6,0-5.8,0-7.7,0c-0.3,0-0.6,0.3-0.6,0.6v2.6V22v12.3c0,0.3,0.3,0.6,0.6,0.6l0,0
		l0,0h11c0.3,0,0.6-0.3,0.6-0.6C34.9,34.3,34.9,22.4,34.9,22.4z M32.6,33.2H25c-0.3,0-0.5-0.3-0.5-0.6S24.7,32,25,32h7.6
		c0.3,0,0.6,0.3,0.6,0.6C33.2,32.9,32.9,33.2,32.6,33.2z M32.6,30.8H25c-0.3,0-0.5-0.3-0.5,0c0-0.9,0.2-1.1,0.5-1.1h7.6
		c0.3,0,0.6,0.3,0.6,1.1C33.2,30.6,32.9,30.8,32.6,30.8z M32.6,28.5H25c-0.3,0-0.5-0.3-0.5-0.6c0-0.3,0.2-0.6,0.5-0.6h7.6
		c0.3,0,0.6,0.3,0.6,0.6C33.2,28.2,32.9,28.5,32.6,28.5z M32.6,26.1H25c-0.3,0-0.5-0.3-0.5-0.6c0-0.3,0.2-0.6,0.5-0.6h7.6
		c0.3,0,0.6,0.3,0.6,0.6C33.2,25.8,32.9,26.1,32.6,26.1z M28.7,23.7H25c-0.3,0-0.5-0.3-0.5-0.6c0-0.3,0.2-0.6,0.5-0.6h3.8
		c0.3,0,0.6,0.3,0.6,0.6C29.3,23.5,29.1,23.7,28.7,23.7z M28.7,21.4H25c-0.3,0-0.5-0.3-0.5-0.6c0-0.3,0.2-0.6,0.5-0.6h3.8
		c0.3,0,0.6,0.3,0.6,0.6C29.3,21.1,29.1,21.4,28.7,21.4z M12.1,11.9c-0.9,0-1.1-0.3-1.1-0.6s0.2-0.6,0.7-0.6h0.4c-0.2,0,0,0.3,0,0.6
		C12.1,11.7,11.9,11.9,12.1,11.9z M12.3,14.9c0.3,0,1,0.3,1,0.6c0,0.4,0.4,0.8,1,0.8c0.8,0,1.4-0.4,1.4-0.8c0-0.3,0.3-0.6,0.6-0.6
		s0.6,0.3,0.6,0.6c0,1.1-1.1,2.4-2.6,2.4c-1.1,0-2.6-1.3-2.6-2.4C11.7,15.1,11.9,14.9,12.3,14.9z M16.4,11.4c0-0.3,0.3-0.6,0.5-0.6
		l0,0c0.6,0,0.6,0.3,0.6,0.6s0.1,0.6-0.6,0.6C17.2,11.9,16.4,11.7,16.4,11.4z"/>
</g>
</svg>
