<?xml version="1.0" encoding="utf-8"?>
<!-- Generator: Adobe Illustrator 25.2.3, SVG Export Plug-In . SVG Version: 6.00 Build 0)  -->
<svg version="1.1" id="圖層_1" xmlns="http://www.w3.org/2000/svg" xmlns:xlink="http://www.w3.org/1999/xlink" x="0px" y="0px"
	 viewBox="0 0 36 36" style="enable-background:new 0 0 36 36;" xml:space="preserve">
<style type="text/css">
	.st0{fill:#FFFFFF;}
</style>
<g>
	<path class="st0" d="M20,22.4L20,22.4c-0.4,0-0.6-0.3-0.6-0.6c0.1-2.1,1.7-3,2.9-3.4v-5.1c0-0.3,0.3-0.6,0.6-0.6
		c0.3,0,0.6,0.3,0.6,0.6v5.6c0,0.3-0.2,0.5-0.5,0.6c-0.1,0-2.3,0.3-2.4,2.4C20.6,22.1,20.3,22.4,20,22.4z"/>
	<path class="st0" d="M22.9,29.5H12.6c-0.3,0-0.6-0.3-0.6-0.6v-2.1c0-1.4-0.2-2.8-0.6-4.1l-0.6-1.9c0-0.1,0-0.1,0-0.2v-1.5
		c0-0.3,0.3-0.6,0.6-0.6s0.6,0.3,0.6,0.6v1.4l0.6,1.8c0.4,1.4,0.7,2.9,0.7,4.4v1.5h9.1v-3.6c0-0.1,0.1-0.3,0.2-0.4l2.5-2.7
		c0.7-0.7,1-1.6,1-2.6v-5.6c0-0.7-0.5-1.3-1.2-1.4c-0.4,0-0.7,0.1-1,0.3s-0.4,0.6-0.4,0.9c0,0.3-0.3,0.6-0.6,0.6
		c-0.3,0-0.6-0.3-0.6-0.6c0-0.7,0.3-1.3,0.8-1.8s1.2-0.7,1.9-0.6c1.2,0.1,2.2,1.2,2.2,2.5v5.6c0,1.3-0.5,2.5-1.3,3.4l-2.4,2.5v4
		C23.5,29.2,23.2,29.5,22.9,29.5z"/>
	<path class="st0" d="M23.6,32.4H11.9c-0.3,0-0.6-0.3-0.6-0.6v-3c0-0.3,0.3-0.6,0.6-0.6h11.7c0.3,0,0.6,0.3,0.6,0.6v3
		C24.2,32.2,23.9,32.4,23.6,32.4z M12.5,31.3H23v-1.8H12.5V31.3z"/>
	<path class="st0" d="M25.6,36H9.9c-0.3,0-0.6-0.3-0.6-0.6v-3.6c0-0.3,0.3-0.6,0.6-0.6h15.8c0.3,0,0.6,0.3,0.6,0.6v3.6
		C26.2,35.7,26,36,25.6,36z M10.5,34.8h14.6v-2.4H10.5V34.8z"/>
	<path class="st0" d="M30.7,19.8h-4.1c-0.3,0-0.6-0.3-0.6-0.6v-5.9c0-0.7-0.6-1.3-1.3-1.3c-0.7,0-1.3,0.6-1.3,1.3v5.9
		c0,0.3-0.3,0.6-0.6,0.6H5.3c-0.3,0-0.6-0.3-0.6-0.6V0.6C4.7,0.3,5,0,5.3,0h25.5c0.3,0,0.6,0.3,0.6,0.6v1.9C31.3,2.8,31,3,30.7,3
		s-0.6-0.3-0.6-0.6V1.2H5.9v17.5h16.5v-5.4c0-1.3,1.1-2.4,2.4-2.4s2.4,1.1,2.4,2.4v5.4h3V5.6c0-0.3,0.3-0.6,0.6-0.6
		c0.3,0,0.6,0.3,0.6,0.6v13.7C31.3,19.5,31,19.8,30.7,19.8z"/>
	<path class="st0" d="M21.1,4.2h-5.8c-0.3,0-0.6-0.3-0.6-0.6S15,3,15.3,3h5.8c0.3,0,0.6,0.3,0.6,0.6C21.7,4,21.4,4.2,21.1,4.2z"/>
	<path class="st0" d="M27.2,6.8h-18c-0.3,0-0.6-0.3-0.6-0.6c0-0.3,0.3-0.6,0.6-0.6h18c0.3,0,0.6,0.3,0.6,0.6
		C27.8,6.6,27.6,6.8,27.2,6.8z"/>
	<path class="st0" d="M27.2,9.5h-18c-0.3,0-0.6-0.3-0.6-0.6s0.3-0.6,0.6-0.6h18c0.3,0,0.6,0.3,0.6,0.6C27.8,9.2,27.6,9.5,27.2,9.5z"
		/>
	<path class="st0" d="M23.9,12.1H9.2c-0.3,0-0.6-0.3-0.6-0.6s0.3-0.6,0.6-0.6h14.6c0.3,0,0.6,0.3,0.6,0.6S24.2,12.1,23.9,12.1z"/>
	<path class="st0" d="M22.9,14.7H9.2c-0.3,0-0.6-0.3-0.6-0.6s0.3-0.6,0.6-0.6h13.7c0.3,0,0.6,0.3,0.6,0.6S23.2,14.7,22.9,14.7z"/>
	<path class="st0" d="M30.2,36H5.3c-0.3,0-0.6-0.3-0.6-0.6s0.3-0.6,0.6-0.6h24.9c0.3,0,0.6,0.3,0.6,0.6C30.8,35.7,30.5,36,30.2,36z"
		/>
</g>
</svg>
