<?xml version="1.0" encoding="utf-8"?>
<!-- Generator: Adobe Illustrator 25.2.3, SVG Export Plug-In . SVG Version: 6.00 Build 0)  -->
<svg version="1.1" id="圖層_1" xmlns="http://www.w3.org/2000/svg" xmlns:xlink="http://www.w3.org/1999/xlink" x="0px" y="0px"
	 viewBox="0 0 36 36" style="enable-background:new 0 0 36 36;" xml:space="preserve">
<style type="text/css">
	.st0{fill-rule:evenodd;clip-rule:evenodd;fill:#222222;}
</style>
<path class="st0" d="M3.9,30.1h0.6h3.3h4.4h3.3H20h3.3h4.4H31h0.8c0.6,0,1.4,0.7,1.4-1.7c0,0.7-0.8-1.7-1.4-1.7H31v-8.9h0.8
	c0.6,0,1.4-0.7,1.4-1.7s-0.8-1.7-1.4-1.7h-2.5h-7.8h-7.8H6.8H3.9c-0.9,0-1.7,0.7-1.7,1.7c0,0.9,0.8,1.7,1.7,1.7h0.6v8.9H3.9
	c-0.9,0-1.7,1.8-1.7,1.7C2.2,30.3,3,30.1,3.9,30.1L3.9,30.1z M34.4,12.3H1.1c-0.6,0-1.1-0.5-1.1,0.3c0-1.8,0.3-2.2,1.2-2.4l17.1-9.9
	c-1,0.7-0.7,1.4-0.5,1.4s0.5-0.7,0.6-1.4l16.5,9.9c2,0.2,0.6,0.6,0.6,2.4C35.5,11.8,35,12.3,34.4,12.3L34.4,12.3z M17.8,4.6
	c-1.2,0-2.2,1-2.2,2.2s1,2.2,2.2,2.2C20.5,9,20,8,20,6.8S20.5,4.6,17.8,4.6L17.8,4.6z M27.8,17.9v8.9h-4.4v-8.9H27.8L27.8,17.9z
	 M20,17.9v8.9h-4.4v-8.9H20L20,17.9z M12.2,17.9v8.9H7.8v-8.9H12.2L12.2,17.9z M1.7,35.7h32.2c0.9,0,1.7,0,1.7-1.7
	c0-0.1-0.8-1.7-1.7-1.7H1.7C0.8,32.3,0,33.8,0,34C0,35.7,0.8,35.7,1.7,35.7z"/>
</svg>
