<?xml version="1.0" encoding="utf-8"?>
<!-- Generator: Adobe Illustrator 25.2.3, SVG Export Plug-In . SVG Version: 6.00 Build 0)  -->
<svg version="1.1" id="圖層_1" xmlns="http://www.w3.org/2000/svg" xmlns:xlink="http://www.w3.org/1999/xlink" x="0px" y="0px"
	 viewBox="0 0 36 36" style="enable-background:new 0 0 36 36;" xml:space="preserve">
<style type="text/css">
	.st0{fill-rule:evenodd;clip-rule:evenodd;fill:#222222;}
	.st1{fill:#222222;}
</style>
<g>
	<path class="st0" d="M20.5,31.9v1.2c0,1.2-1,2.2-2.2,2.2h-2.2c-1.2,0-2.2-1-2.2-2.2v-1.2L20.5,31.9L20.5,31.9z"/>
	<path class="st0" d="M13.9,28.8v-1.1c0-2.4-2.7-3.5-4-5.3c-1-1.4-1.6-3.2-1.6-4.9c0-4.8,4-8.6,8.9-8.6s8.9,3.9,8.9,8.6
		c0,1.8-0.6,3.5-1.6,4.9c-1.3,1.8-4,2.9-4,5.3v1.1L13.9,28.8L13.9,28.8z"/>
	<path class="st1" d="M17.6,7.5L17.6,7.5c-1.1,0-1.9-0.9-1.9-1.9v-3c0-1.1,0.9-1.9,1.9-1.9h0c1.1,0,1.9,0.9,1.9,1.9v3
		C19.5,6.6,18.7,7.5,17.6,7.5z"/>
	<path class="st1" d="M9.5,10L9.5,10c-0.8,0.8-2,0.8-2.8,0L4.6,7.9c-0.8-0.8-0.8-2,0-2.8l0,0c0.8-0.8,2-0.8,2.8,0l2.2,2.2
		C10.3,8,10.3,9.3,9.5,10z"/>
	<path class="st1" d="M4.6,30.1L4.6,30.1c0.8,0.8,2,0.8,2.8,0l2.2-2.2c0.8-0.8,0.8-2,0-2.8l0,0c-0.8-0.8-2-0.8-2.8,0l-2.2,2.2
		C3.9,28.1,3.9,29.3,4.6,30.1z"/>
	<path class="st1" d="M6.8,17.6L6.8,17.6c0,1.1-0.9,1.9-1.9,1.9h-3c-1.1,0-1.9-0.9-1.9-1.9v0c0-1.1,0.9-1.9,1.9-1.9h3
		C5.9,15.7,6.8,16.5,6.8,17.6z"/>
	<path class="st1" d="M26.3,10L26.3,10c0.8,0.8,2,0.8,2.8,0l2.2-2.2c0.8-0.8,0.8-2,0-2.8l0,0c-0.8-0.8-2-0.8-2.8,0l-2.2,2.2
		C25.6,8,25.6,9.3,26.3,10z"/>
	<path class="st1" d="M31.2,30.1L31.2,30.1c-0.8,0.8-2,0.8-2.8,0l-2.2-2.2c-0.8-0.8-0.8-2,0-2.8l0,0c0.8-0.8,2-0.8,2.8,0l2.2,2.2
		C32,28.1,32,29.3,31.2,30.1z"/>
	<path class="st1" d="M29.1,17.6L29.1,17.6c0,1.1,0.9,1.9,1.9,1.9h3c1.1,0,1.9-0.9,1.9-1.9v0c0-1.1-0.9-1.9-1.9-1.9h-3
		C29.9,15.7,29.1,16.5,29.1,17.6z"/>
</g>
</svg>
